# Blender v2.80 (sub 74) OBJ File: 'building01.blend'
# www.blender.org
mtllib building05.mtl
o Cube.004
v -1.000000 0.000000 1.000000
v -1.000000 2.000000 1.000000
v -1.000000 0.000000 -1.000000
v -1.000000 2.000000 -1.000000
v 1.000000 0.000000 1.000000
v 1.000000 2.000000 1.000000
v 1.000000 0.000000 -1.000000
v 1.000000 2.000000 -1.000000
v -0.991340 0.008660 0.991340
v -1.008660 -0.008660 1.008660
v -0.991340 1.991340 0.991340
v -1.008660 2.008660 1.008660
v -0.991340 0.008660 -0.991340
v -1.008660 -0.008660 -1.008660
v -0.991340 1.991340 -0.991340
v -1.008660 2.008660 -1.008660
v 0.991340 0.008660 0.991340
v 1.008660 -0.008660 1.008660
v 0.991340 1.991340 0.991340
v 1.008660 2.008660 1.008660
v 0.991340 0.008660 -0.991340
v 1.008660 -0.008660 -1.008660
v 0.991340 1.991340 -0.991340
v 1.008660 2.008660 -1.008660
v -1.000000 0.015000 0.985000
v -1.000000 1.985000 0.985000
v -1.000000 1.985000 -0.985000
v -1.000000 0.015000 -0.985000
v -0.985000 0.015000 -1.000000
v -0.985000 1.985000 -1.000000
v 0.985000 1.985000 -1.000000
v 0.985000 0.015000 -1.000000
v 1.000000 0.015000 -0.985000
v 1.000000 1.985000 -0.985000
v 1.000000 1.985000 0.985000
v 1.000000 0.015000 0.985000
v 0.985000 0.015000 1.000000
v 0.985000 1.985000 1.000000
v -0.985000 1.985000 1.000000
v -0.985000 0.015000 1.000000
v -0.985000 0.000000 -0.985000
v 0.985000 0.000000 -0.985000
v 0.985000 0.000000 0.985000
v -0.985000 0.000000 0.985000
v 0.985000 2.000000 -0.985000
v -0.985000 2.000000 -0.985000
v -0.985000 2.000000 0.985000
v 0.985000 2.000000 0.985000
vt 0.375000 0.000000
vt 0.625000 0.000000
vt 0.625000 0.250000
vt 0.375000 0.250000
vt 0.625000 0.500000
vt 0.375000 0.500000
vt 0.625000 0.750000
vt 0.375000 0.750000
vt 0.625000 1.000000
vt 0.375000 1.000000
vt 0.125000 0.500000
vt 0.125000 0.750000
vt 0.875000 0.500000
vt 0.875000 0.750000
vt 0.375000 0.000000
vt 0.625000 0.000000
vt 0.625000 0.000000
vt 0.375000 0.000000
vt 0.375000 0.000000
vt 0.625000 0.000000
vt 0.625000 0.250000
vt 0.625000 0.250000
vt 0.625000 0.250000
vt 0.375000 0.250000
vt 0.375000 0.250000
vt 0.375000 0.250000
vt 0.375000 0.250000
vt 0.625000 0.250000
vt 0.625000 0.500000
vt 0.625000 0.500000
vt 0.625000 0.500000
vt 0.375000 0.500000
vt 0.375000 0.500000
vt 0.375000 0.500000
vt 0.375000 0.500000
vt 0.625000 0.500000
vt 0.625000 0.750000
vt 0.625000 0.750000
vt 0.625000 0.750000
vt 0.375000 0.750000
vt 0.375000 0.750000
vt 0.375000 0.750000
vt 0.375000 0.750000
vt 0.625000 0.750000
vt 0.625000 1.000000
vt 0.625000 1.000000
vt 0.625000 1.000000
vt 0.375000 1.000000
vt 0.375000 1.000000
vt 0.375000 1.000000
vt 0.125000 0.500000
vt 0.375000 0.500000
vt 0.125000 0.500000
vt 0.125000 0.500000
vt 0.375000 0.750000
vt 0.125000 0.750000
vt 0.125000 0.750000
vt 0.125000 0.750000
vt 0.625000 0.500000
vt 0.875000 0.500000
vt 0.875000 0.500000
vt 0.875000 0.500000
vt 0.875000 0.750000
vt 0.875000 0.750000
vt 0.875000 0.750000
vt 0.625000 0.750000
vn -1.0000 0.0000 0.0000
vn 0.0000 0.0000 -1.0000
vn 1.0000 0.0000 0.0000
vn 0.0000 0.0000 1.0000
vn 0.0000 -1.0000 0.0000
vn 0.0000 1.0000 0.0000
vn 0.5907 0.0000 -0.8069
vn -0.9391 0.0000 -0.3437
vn 0.5907 -0.8069 0.0000
vn -0.9391 -0.3437 0.0000
vn 0.5907 0.0000 0.8069
vn -0.9391 0.0000 0.3437
vn 0.5907 0.8069 0.0000
vn -0.9391 0.3437 0.0000
vn 0.8069 0.0000 0.5907
vn 0.3437 0.0000 -0.9391
vn 0.0000 -0.8069 0.5907
vn 0.0000 -0.3437 -0.9391
vn -0.8069 0.0000 0.5907
vn -0.3437 0.0000 -0.9391
vn 0.0000 0.8069 0.5907
vn 0.0000 0.3437 -0.9391
vn -0.5907 0.0000 0.8069
vn 0.9391 0.0000 0.3437
vn -0.5907 -0.8069 0.0000
vn 0.9391 -0.3437 0.0000
vn -0.5907 0.0000 -0.8069
vn 0.9391 0.0000 -0.3437
vn -0.5907 0.8069 0.0000
vn 0.9391 0.3437 0.0000
vn -0.8069 0.0000 -0.5907
vn -0.3437 0.0000 0.9391
vn 0.0000 -0.8069 -0.5907
vn 0.0000 -0.3437 0.9391
vn 0.8069 0.0000 -0.5907
vn 0.3437 0.0000 0.9391
vn 0.0000 0.8069 -0.5907
vn 0.0000 0.3437 0.9391
vn 0.0000 0.5907 0.8069
vn 0.0000 -0.9391 0.3437
vn -0.8069 0.5907 0.0000
vn -0.3437 -0.9391 0.0000
vn 0.0000 0.5907 -0.8069
vn 0.0000 -0.9391 -0.3437
vn 0.8069 0.5907 0.0000
vn 0.3437 -0.9391 0.0000
vn 0.0000 -0.5907 0.8069
vn 0.0000 0.9391 0.3437
vn 0.8069 -0.5907 0.0000
vn 0.3437 0.9391 0.0000
vn 0.0000 -0.5907 -0.8069
vn 0.0000 0.9391 -0.3437
vn -0.8069 -0.5907 0.0000
vn -0.3437 0.9391 0.0000
usemtl Material.001
s off
f 1/1/1 2/2/1 4/3/1 3/4/1
f 3/4/2 4/3/2 8/5/2 7/6/2
f 7/6/3 8/5/3 6/7/3 5/8/3
f 5/8/4 6/7/4 2/9/4 1/10/4
f 3/11/5 7/6/5 5/8/5 1/12/5
f 8/5/6 4/13/6 2/14/6 6/7/6
usemtl Material.002
f 25/15/7 26/16/7 11/17/7 9/18/7
f 26/16/8 25/15/8 10/19/8 12/20/8
f 26/16/9 27/21/9 15/22/9 11/17/9
f 27/21/10 26/16/10 12/20/10 16/23/10
f 27/21/11 28/24/11 13/25/11 15/22/11
f 28/24/12 27/21/12 16/23/12 14/26/12
f 28/24/13 25/15/13 9/18/13 13/25/13
f 25/15/14 28/24/14 14/26/14 10/19/14
f 29/27/15 30/28/15 15/22/15 13/25/15
f 30/28/16 29/27/16 14/26/16 16/23/16
f 30/28/17 31/29/17 23/30/17 15/22/17
f 31/29/18 30/28/18 16/23/18 24/31/18
f 31/29/19 32/32/19 21/33/19 23/30/19
f 32/32/20 31/29/20 24/31/20 22/34/20
f 32/32/21 29/27/21 13/25/21 21/33/21
f 29/27/22 32/32/22 22/34/22 14/26/22
f 33/35/23 34/36/23 23/30/23 21/33/23
f 34/36/24 33/35/24 22/34/24 24/31/24
f 34/36/25 35/37/25 19/38/25 23/30/25
f 35/37/26 34/36/26 24/31/26 20/39/26
f 35/37/27 36/40/27 17/41/27 19/38/27
f 36/40/28 35/37/28 20/39/28 18/42/28
f 36/40/29 33/35/29 21/33/29 17/41/29
f 33/35/30 36/40/30 18/42/30 22/34/30
f 37/43/31 38/44/31 19/38/31 17/41/31
f 38/44/32 37/43/32 18/42/32 20/39/32
f 38/44/33 39/45/33 11/46/33 19/38/33
f 39/45/34 38/44/34 20/39/34 12/47/34
f 39/45/35 40/48/35 9/49/35 11/46/35
f 40/48/36 39/45/36 12/47/36 10/50/36
f 40/48/37 37/43/37 17/41/37 9/49/37
f 37/43/38 40/48/38 10/50/38 18/42/38
f 41/51/39 42/52/39 21/33/39 13/53/39
f 42/52/40 41/51/40 14/54/40 22/34/40
f 42/52/41 43/55/41 17/41/41 21/33/41
f 43/55/42 42/52/42 22/34/42 18/42/42
f 43/55/43 44/56/43 9/57/43 17/41/43
f 44/56/44 43/55/44 18/42/44 10/58/44
f 44/56/45 41/51/45 13/53/45 9/57/45
f 41/51/46 44/56/46 10/58/46 14/54/46
f 45/59/47 46/60/47 15/61/47 23/30/47
f 46/60/48 45/59/48 24/31/48 16/62/48
f 46/60/49 47/63/49 11/64/49 15/61/49
f 47/63/50 46/60/50 16/62/50 12/65/50
f 47/63/51 48/66/51 19/38/51 11/64/51
f 48/66/52 47/63/52 12/65/52 20/39/52
f 48/66/53 45/59/53 23/30/53 19/38/53
f 45/59/54 48/66/54 20/39/54 24/31/54
