# Blender v2.80 (sub 74) OBJ File: 'building01.blend'
# www.blender.org
mtllib building03.mtl
o Cube.002
v -1.000000 0.000000 1.000000
v -1.000000 2.000000 1.000000
v -1.000000 0.000000 -1.000000
v -1.000000 2.000000 -1.000000
v 1.000000 0.000000 1.000000
v 1.000000 2.000000 1.000000
v 1.000000 0.000000 -1.000000
v 1.000000 2.000000 -1.000000
v -1.000000 1.000000 1.000000
v -1.000000 1.000000 -1.000000
v 1.000000 1.000000 -1.000000
v 1.000000 1.000000 1.000000
v -1.000000 1.500000 1.000000
v -1.000000 1.500000 -1.000000
v 1.000000 1.500000 -1.000000
v 1.000000 1.500000 1.000000
v -1.000000 0.500000 -1.000000
v 1.000000 0.500000 -1.000000
v 1.000000 0.500000 1.000000
v -1.000000 0.500000 1.000000
v -1.000000 1.250000 -1.000000
v 1.000000 1.250000 -1.000000
v 1.000000 1.250000 1.000000
v -1.000000 1.250000 1.000000
v -1.000000 0.750000 1.000000
v -1.000000 0.750000 -1.000000
v 1.000000 0.750000 -1.000000
v 1.000000 0.750000 1.000000
v -0.991340 0.008660 0.991340
v -1.008660 -0.008660 1.008660
v -0.991340 1.991340 0.991340
v -1.008660 2.008660 1.008660
v -0.991340 0.008660 -0.991340
v -1.008660 -0.008660 -1.008660
v -0.991340 1.991340 -0.991340
v -1.008660 2.008660 -1.008660
v 0.991340 0.008660 0.991340
v 1.008660 -0.008660 1.008660
v 0.991340 1.991340 0.991340
v 1.008660 2.008660 1.008660
v 0.991340 0.008660 -0.991340
v 1.008660 -0.008660 -1.008660
v 0.991340 1.991340 -0.991340
v 1.008660 2.008660 -1.008660
v -0.989394 1.000000 0.989394
v -1.010606 1.000000 1.010606
v -0.989394 1.000000 -0.989394
v -1.010606 1.000000 -1.010606
v 0.989394 1.000000 -0.989394
v 1.010606 1.000000 -1.010606
v 0.989394 1.000000 0.989394
v 1.010606 1.000000 1.010606
v -0.989394 1.500000 0.989394
v -1.010606 1.500000 1.010606
v -0.989394 1.500000 -0.989394
v -1.010606 1.500000 -1.010606
v 0.989394 1.500000 -0.989394
v 1.010606 1.500000 -1.010606
v 0.989394 1.500000 0.989394
v 1.010606 1.500000 1.010606
v -0.989394 0.500000 -0.989394
v -1.010606 0.500000 -1.010606
v 0.989394 0.500000 -0.989394
v 1.010606 0.500000 -1.010606
v 0.989394 0.500000 0.989394
v 1.010606 0.500000 1.010606
v -0.989394 0.500000 0.989394
v -1.010606 0.500000 1.010606
v -0.989394 1.250000 -0.989394
v -1.010606 1.250000 -1.010606
v 0.989394 1.250000 -0.989394
v 1.010606 1.250000 -1.010606
v 0.989394 1.250000 0.989394
v 1.010606 1.250000 1.010606
v -0.989394 1.250000 0.989394
v -1.010606 1.250000 1.010606
v -0.989394 0.750000 0.989394
v -1.010606 0.750000 1.010606
v -0.989394 0.750000 -0.989394
v -1.010606 0.750000 -1.010606
v 0.989394 0.750000 -0.989394
v 1.010606 0.750000 -1.010606
v 0.989394 0.750000 0.989394
v 1.010606 0.750000 1.010606
v -1.000000 1.515000 0.985000
v -1.000000 1.985000 0.985000
v -1.000000 1.985000 -0.985000
v -1.000000 1.515000 -0.985000
v -0.985000 1.515000 -1.000000
v -0.985000 1.985000 -1.000000
v 0.985000 1.985000 -1.000000
v 0.985000 1.515000 -1.000000
v 1.000000 1.515000 -0.985000
v 1.000000 1.985000 -0.985000
v 1.000000 1.985000 0.985000
v 1.000000 1.515000 0.985000
v 0.985000 1.515000 1.000000
v 0.985000 1.985000 1.000000
v -0.985000 1.985000 1.000000
v -0.985000 1.515000 1.000000
v -0.985000 0.000000 -0.985000
v 0.985000 0.000000 -0.985000
v 0.985000 0.000000 0.985000
v -0.985000 0.000000 0.985000
v 0.985000 2.000000 -0.985000
v -0.985000 2.000000 -0.985000
v -0.985000 2.000000 0.985000
v 0.985000 2.000000 0.985000
v 0.985000 0.765000 1.000000
v 0.985000 0.985000 1.000000
v -0.985000 0.985000 1.000000
v -0.985000 0.765000 1.000000
v 1.000000 0.765000 -0.985000
v 1.000000 0.985000 -0.985000
v 1.000000 0.985000 0.985000
v 1.000000 0.765000 0.985000
v -0.985000 0.765000 -1.000000
v -0.985000 0.985000 -1.000000
v 0.985000 0.985000 -1.000000
v 0.985000 0.765000 -1.000000
v -1.000000 0.765000 0.985000
v -1.000000 0.985000 0.985000
v -1.000000 0.985000 -0.985000
v -1.000000 0.765000 -0.985000
v 0.985000 1.265000 1.000000
v 0.985000 1.485000 1.000000
v -0.985000 1.485000 1.000000
v -0.985000 1.265000 1.000000
v 1.000000 1.265000 -0.985000
v 1.000000 1.485000 -0.985000
v 1.000000 1.485000 0.985000
v 1.000000 1.265000 0.985000
v -0.985000 1.265000 -1.000000
v -0.985000 1.485000 -1.000000
v 0.985000 1.485000 -1.000000
v 0.985000 1.265000 -1.000000
v -1.000000 1.265000 0.985000
v -1.000000 1.485000 0.985000
v -1.000000 1.485000 -0.985000
v -1.000000 1.265000 -0.985000
v -1.000000 0.015000 0.985000
v -1.000000 0.485000 0.985000
v -1.000000 0.485000 -0.985000
v -1.000000 0.015000 -0.985000
v -0.985000 0.015000 -1.000000
v -0.985000 0.485000 -1.000000
v 0.985000 0.485000 -1.000000
v 0.985000 0.015000 -1.000000
v 1.000000 0.015000 -0.985000
v 1.000000 0.485000 -0.985000
v 1.000000 0.485000 0.985000
v 1.000000 0.015000 0.985000
v 0.985000 0.015000 1.000000
v 0.985000 0.485000 1.000000
v -0.985000 0.485000 1.000000
v -0.985000 0.015000 1.000000
v -1.000000 1.015000 0.985000
v -1.000000 1.235000 0.985000
v -1.000000 1.235000 -0.985000
v -1.000000 1.015000 -0.985000
v -0.985000 1.015000 -1.000000
v -0.985000 1.235000 -1.000000
v 0.985000 1.235000 -1.000000
v 0.985000 1.015000 -1.000000
v 1.000000 1.015000 -0.985000
v 1.000000 1.235000 -0.985000
v 1.000000 1.235000 0.985000
v 1.000000 1.015000 0.985000
v 0.985000 1.015000 1.000000
v 0.985000 1.235000 1.000000
v -0.985000 1.235000 1.000000
v -0.985000 1.015000 1.000000
v -1.000000 0.515000 0.985000
v -1.000000 0.735000 0.985000
v -1.000000 0.735000 -0.985000
v -1.000000 0.515000 -0.985000
v -0.985000 0.515000 -1.000000
v -0.985000 0.735000 -1.000000
v 0.985000 0.735000 -1.000000
v 0.985000 0.515000 -1.000000
v 1.000000 0.515000 -0.985000
v 1.000000 0.735000 -0.985000
v 1.000000 0.735000 0.985000
v 1.000000 0.515000 0.985000
v 0.985000 0.515000 1.000000
v 0.985000 0.735000 1.000000
v -0.985000 0.735000 1.000000
v -0.985000 0.515000 1.000000
vt 0.562500 0.000000
vt 0.625000 0.000000
vt 0.625000 0.250000
vt 0.562500 0.250000
vt 0.625000 0.500000
vt 0.562500 0.500000
vt 0.625000 0.750000
vt 0.562500 0.750000
vt 0.625000 1.000000
vt 0.562500 1.000000
vt 0.125000 0.500000
vt 0.375000 0.500000
vt 0.375000 0.750000
vt 0.125000 0.750000
vt 0.875000 0.500000
vt 0.875000 0.750000
vt 0.468750 0.750000
vt 0.500000 0.750000
vt 0.500000 1.000000
vt 0.468750 1.000000
vt 0.468750 0.500000
vt 0.500000 0.500000
vt 0.468750 0.250000
vt 0.500000 0.250000
vt 0.468750 0.000000
vt 0.500000 0.000000
vt 0.531250 0.750000
vt 0.531250 1.000000
vt 0.531250 0.500000
vt 0.531250 0.250000
vt 0.531250 0.000000
vt 0.375000 0.000000
vt 0.437500 0.000000
vt 0.437500 0.250000
vt 0.375000 0.250000
vt 0.437500 0.500000
vt 0.437500 0.750000
vt 0.437500 1.000000
vt 0.375000 1.000000
vt 0.562500 0.000000
vt 0.625000 0.000000
vt 0.625000 0.000000
vt 0.562500 0.000000
vt 0.562500 0.000000
vt 0.625000 0.000000
vt 0.625000 0.250000
vt 0.625000 0.250000
vt 0.625000 0.250000
vt 0.562500 0.250000
vt 0.562500 0.250000
vt 0.562500 0.250000
vt 0.562500 0.250000
vt 0.625000 0.250000
vt 0.625000 0.500000
vt 0.625000 0.500000
vt 0.625000 0.500000
vt 0.562500 0.500000
vt 0.562500 0.500000
vt 0.562500 0.500000
vt 0.562500 0.500000
vt 0.625000 0.500000
vt 0.625000 0.750000
vt 0.625000 0.750000
vt 0.625000 0.750000
vt 0.562500 0.750000
vt 0.562500 0.750000
vt 0.562500 0.750000
vt 0.562500 0.750000
vt 0.625000 0.750000
vt 0.625000 1.000000
vt 0.625000 1.000000
vt 0.625000 1.000000
vt 0.562500 1.000000
vt 0.562500 1.000000
vt 0.562500 1.000000
vt 0.125000 0.500000
vt 0.375000 0.500000
vt 0.375000 0.500000
vt 0.125000 0.500000
vt 0.125000 0.500000
vt 0.375000 0.500000
vt 0.375000 0.750000
vt 0.375000 0.750000
vt 0.375000 0.750000
vt 0.125000 0.750000
vt 0.125000 0.750000
vt 0.125000 0.750000
vt 0.625000 0.500000
vt 0.875000 0.500000
vt 0.875000 0.500000
vt 0.875000 0.500000
vt 0.875000 0.750000
vt 0.875000 0.750000
vt 0.875000 0.750000
vt 0.625000 0.750000
vt 0.468750 0.750000
vt 0.500000 0.750000
vt 0.500000 0.750000
vt 0.468750 0.750000
vt 0.468750 0.750000
vt 0.500000 0.750000
vt 0.500000 1.000000
vt 0.500000 1.000000
vt 0.500000 1.000000
vt 0.468750 1.000000
vt 0.468750 1.000000
vt 0.468750 1.000000
vt 0.468750 0.500000
vt 0.500000 0.500000
vt 0.500000 0.500000
vt 0.468750 0.500000
vt 0.468750 0.500000
vt 0.500000 0.500000
vt 0.500000 0.750000
vt 0.468750 0.750000
vt 0.468750 0.250000
vt 0.500000 0.250000
vt 0.500000 0.250000
vt 0.468750 0.250000
vt 0.468750 0.250000
vt 0.500000 0.250000
vt 0.500000 0.500000
vt 0.468750 0.500000
vt 0.468750 0.000000
vt 0.500000 0.000000
vt 0.500000 0.000000
vt 0.468750 0.000000
vt 0.468750 0.000000
vt 0.500000 0.000000
vt 0.500000 0.250000
vt 0.468750 0.250000
vt 0.531250 0.750000
vt 0.562500 0.750000
vt 0.531250 0.750000
vt 0.531250 0.750000
vt 0.562500 1.000000
vt 0.531250 1.000000
vt 0.531250 1.000000
vt 0.531250 1.000000
vt 0.531250 0.500000
vt 0.562500 0.500000
vt 0.531250 0.500000
vt 0.531250 0.500000
vt 0.562500 0.750000
vt 0.531250 0.750000
vt 0.531250 0.250000
vt 0.562500 0.250000
vt 0.531250 0.250000
vt 0.531250 0.250000
vt 0.562500 0.500000
vt 0.531250 0.500000
vt 0.531250 0.000000
vt 0.562500 0.000000
vt 0.531250 0.000000
vt 0.531250 0.000000
vt 0.562500 0.250000
vt 0.531250 0.250000
vt 0.375000 0.000000
vt 0.437500 0.000000
vt 0.437500 0.000000
vt 0.375000 0.000000
vt 0.375000 0.000000
vt 0.437500 0.000000
vt 0.437500 0.250000
vt 0.437500 0.250000
vt 0.437500 0.250000
vt 0.375000 0.250000
vt 0.375000 0.250000
vt 0.375000 0.250000
vt 0.375000 0.250000
vt 0.437500 0.250000
vt 0.437500 0.500000
vt 0.437500 0.500000
vt 0.437500 0.500000
vt 0.375000 0.500000
vt 0.375000 0.500000
vt 0.437500 0.500000
vt 0.437500 0.750000
vt 0.437500 0.750000
vt 0.437500 0.750000
vt 0.375000 0.750000
vt 0.375000 0.750000
vt 0.437500 0.750000
vt 0.437500 1.000000
vt 0.437500 1.000000
vt 0.437500 1.000000
vt 0.375000 1.000000
vt 0.375000 1.000000
vt 0.375000 1.000000
vt 0.500000 0.000000
vt 0.531250 0.000000
vt 0.531250 0.250000
vt 0.500000 0.250000
vt 0.500000 0.250000
vt 0.531250 0.250000
vt 0.531250 0.500000
vt 0.500000 0.500000
vt 0.500000 0.500000
vt 0.531250 0.500000
vt 0.531250 0.750000
vt 0.500000 0.750000
vt 0.500000 0.750000
vt 0.531250 0.750000
vt 0.531250 1.000000
vt 0.500000 1.000000
vt 0.437500 0.000000
vt 0.468750 0.000000
vt 0.468750 0.250000
vt 0.437500 0.250000
vt 0.437500 0.250000
vt 0.468750 0.250000
vt 0.468750 0.500000
vt 0.437500 0.500000
vt 0.437500 0.500000
vt 0.468750 0.500000
vt 0.468750 0.750000
vt 0.437500 0.750000
vt 0.437500 0.750000
vt 0.468750 0.750000
vt 0.468750 1.000000
vt 0.437500 1.000000
vn -1.0000 0.0000 0.0000
vn 0.0000 0.0000 -1.0000
vn 1.0000 0.0000 0.0000
vn 0.0000 0.0000 1.0000
vn 0.0000 -1.0000 0.0000
vn 0.0000 1.0000 0.0000
vn 0.4876 0.0028 -0.8731
vn -0.9313 0.0011 -0.3644
vn 0.5907 -0.8069 0.0000
vn -0.9391 -0.3437 0.0000
vn 0.4876 0.0028 0.8731
vn -0.9313 0.0011 0.3644
vn 0.8165 0.5773 0.0000
vn -0.8165 0.5773 0.0000
vn 0.8731 0.0028 0.4876
vn 0.3644 0.0011 -0.9312
vn 0.0000 -0.8069 0.5907
vn 0.0000 -0.3437 -0.9391
vn -0.8731 0.0028 0.4876
vn -0.3644 0.0011 -0.9312
vn 0.0000 0.5773 0.8165
vn 0.0000 0.5773 -0.8165
vn -0.4876 0.0028 0.8731
vn 0.9313 0.0011 0.3644
vn -0.5907 -0.8069 0.0000
vn 0.9391 -0.3437 0.0000
vn -0.4876 0.0028 -0.8731
vn 0.9313 0.0011 -0.3644
vn -0.8731 0.0028 -0.4876
vn -0.3644 0.0011 0.9312
vn 0.0000 -0.8069 -0.5907
vn 0.0000 -0.3437 0.9391
vn 0.8731 0.0028 -0.4876
vn 0.3644 0.0011 0.9312
vn 0.0000 0.5907 0.8069
vn 0.0000 -0.9391 0.3437
vn -0.8069 0.5907 0.0000
vn -0.3437 -0.9391 0.0000
vn 0.0000 0.5907 -0.8069
vn 0.0000 -0.9391 -0.3437
vn 0.8069 0.5907 0.0000
vn 0.3437 -0.9391 0.0000
vn 0.0000 -0.5907 0.8069
vn 0.0000 0.9391 0.3437
vn 0.8069 -0.5907 0.0000
vn 0.3437 0.9391 0.0000
vn 0.0000 -0.5907 -0.8069
vn 0.0000 0.9391 -0.3437
vn -0.8069 -0.5907 0.0000
vn -0.3437 0.9391 0.0000
vn -0.9239 0.0000 -0.3827
vn -0.3827 0.0000 0.9239
vn 0.0000 -0.5773 -0.8165
vn 0.0000 -0.5773 0.8165
vn 0.9239 0.0000 -0.3827
vn 0.3827 0.0000 0.9239
vn 0.9239 0.0000 0.3827
vn -0.8165 -0.5773 0.0000
vn 0.8165 -0.5773 0.0000
vn -0.3827 0.0000 -0.9239
vn 0.3827 0.0000 -0.9239
vn -0.9239 0.0000 0.3827
vn 0.4876 -0.0028 -0.8731
vn -0.9313 -0.0011 -0.3644
vn 0.4876 -0.0028 0.8731
vn -0.9313 -0.0011 0.3644
vn 0.5907 0.8069 0.0000
vn -0.9391 0.3437 0.0000
vn 0.8731 -0.0028 0.4876
vn 0.3644 -0.0011 -0.9312
vn -0.8731 -0.0028 0.4876
vn -0.3644 -0.0011 -0.9312
vn 0.0000 0.8069 0.5907
vn 0.0000 0.3437 -0.9391
vn -0.4876 -0.0028 0.8731
vn 0.9313 -0.0011 0.3644
vn -0.4876 -0.0028 -0.8731
vn 0.9313 -0.0011 -0.3644
vn -0.5907 0.8069 0.0000
vn 0.9391 0.3437 0.0000
vn -0.8731 -0.0028 -0.4876
vn -0.3644 -0.0011 0.9312
vn 0.8731 -0.0028 -0.4876
vn 0.3644 -0.0011 0.9312
vn 0.0000 0.8069 -0.5907
vn 0.0000 0.3437 0.9391
usemtl Material.001
s off
f 13/1/1 2/2/1 4/3/1 14/4/1
f 14/4/2 4/3/2 8/5/2 15/6/2
f 15/6/3 8/5/3 6/7/3 16/8/3
f 16/8/4 6/7/4 2/9/4 13/10/4
f 3/11/5 7/12/5 5/13/5 1/14/5
f 8/5/6 4/15/6 2/16/6 6/7/6
f 28/17/4 12/18/4 9/19/4 25/20/4
f 27/21/3 11/22/3 12/18/3 28/17/3
f 26/23/2 10/24/2 11/22/2 27/21/2
f 25/25/1 9/26/1 10/24/1 26/23/1
f 23/27/4 16/8/4 13/10/4 24/28/4
f 22/29/3 15/6/3 16/8/3 23/27/3
f 21/30/2 14/4/2 15/6/2 22/29/2
f 24/31/1 13/1/1 14/4/1 21/30/1
f 1/32/1 20/33/1 17/34/1 3/35/1
f 3/35/2 17/34/2 18/36/2 7/12/2
f 7/12/3 18/36/3 19/37/3 5/13/3
f 5/13/4 19/37/4 20/38/4 1/39/4
f 9/26/1 24/31/1 21/30/1 10/24/1
f 10/24/2 21/30/2 22/29/2 11/22/2
f 11/22/3 22/29/3 23/27/3 12/18/3
f 12/18/4 23/27/4 24/28/4 9/19/4
f 20/33/1 25/25/1 26/23/1 17/34/1
f 17/34/2 26/23/2 27/21/2 18/36/2
f 18/36/3 27/21/3 28/17/3 19/37/3
f 19/37/4 28/17/4 25/20/4 20/38/4
usemtl Material.002
f 85/40/7 86/41/7 31/42/7 53/43/7
f 86/41/8 85/40/8 54/44/8 32/45/8
f 86/41/9 87/46/9 35/47/9 31/42/9
f 87/46/10 86/41/10 32/45/10 36/48/10
f 87/46/11 88/49/11 55/50/11 35/47/11
f 88/49/12 87/46/12 36/48/12 56/51/12
f 88/49/13 85/40/13 53/43/13 55/50/13
f 85/40/14 88/49/14 56/51/14 54/44/14
f 89/52/15 90/53/15 35/47/15 55/50/15
f 90/53/16 89/52/16 56/51/16 36/48/16
f 90/53/17 91/54/17 43/55/17 35/47/17
f 91/54/18 90/53/18 36/48/18 44/56/18
f 91/54/19 92/57/19 57/58/19 43/55/19
f 92/57/20 91/54/20 44/56/20 58/59/20
f 92/57/21 89/52/21 55/50/21 57/58/21
f 89/52/22 92/57/22 58/59/22 56/51/22
f 93/60/23 94/61/23 43/55/23 57/58/23
f 94/61/24 93/60/24 58/59/24 44/56/24
f 94/61/25 95/62/25 39/63/25 43/55/25
f 95/62/26 94/61/26 44/56/26 40/64/26
f 95/62/27 96/65/27 59/66/27 39/63/27
f 96/65/28 95/62/28 40/64/28 60/67/28
f 96/65/14 93/60/14 57/58/14 59/66/14
f 93/60/13 96/65/13 60/67/13 58/59/13
f 97/68/29 98/69/29 39/63/29 59/66/29
f 98/69/30 97/68/30 60/67/30 40/64/30
f 98/69/31 99/70/31 31/71/31 39/63/31
f 99/70/32 98/69/32 40/64/32 32/72/32
f 99/70/33 100/73/33 53/74/33 31/71/33
f 100/73/34 99/70/34 32/72/34 54/75/34
f 100/73/22 97/68/22 59/66/22 53/74/22
f 97/68/21 100/73/21 54/75/21 60/67/21
f 101/76/35 102/77/35 41/78/35 33/79/35
f 102/77/36 101/76/36 34/80/36 42/81/36
f 102/77/37 103/82/37 37/83/37 41/78/37
f 103/82/38 102/77/38 42/81/38 38/84/38
f 103/82/39 104/85/39 29/86/39 37/83/39
f 104/85/40 103/82/40 38/84/40 30/87/40
f 104/85/41 101/76/41 33/79/41 29/86/41
f 101/76/42 104/85/42 30/87/42 34/80/42
f 105/88/43 106/89/43 35/90/43 43/55/43
f 106/89/44 105/88/44 44/56/44 36/91/44
f 106/89/45 107/92/45 31/93/45 35/90/45
f 107/92/46 106/89/46 36/91/46 32/94/46
f 107/92/47 108/95/47 39/63/47 31/93/47
f 108/95/48 107/92/48 32/94/48 40/64/48
f 108/95/49 105/88/49 43/55/49 39/63/49
f 105/88/50 108/95/50 40/64/50 44/56/50
f 109/96/51 110/97/51 51/98/51 83/99/51
f 110/97/52 109/96/52 84/100/52 52/101/52
f 110/97/53 111/102/53 45/103/53 51/98/53
f 111/102/54 110/97/54 52/101/54 46/104/54
f 111/102/55 112/105/55 77/106/55 45/103/55
f 112/105/56 111/102/56 46/104/56 78/107/56
f 112/105/22 109/96/22 83/99/22 77/106/22
f 109/96/21 112/105/21 78/107/21 84/100/21
f 113/108/52 114/109/52 49/110/52 81/111/52
f 114/109/57 113/108/57 82/112/57 50/113/57
f 114/109/58 115/114/58 51/98/58 49/110/58
f 115/114/59 114/109/59 50/113/59 52/101/59
f 115/114/60 116/115/60 83/99/60 51/98/60
f 116/115/55 115/114/55 52/101/55 84/100/55
f 116/115/14 113/108/14 81/111/14 83/99/14
f 113/108/13 116/115/13 84/100/13 82/112/13
f 117/116/57 118/117/57 47/118/57 79/119/57
f 118/117/61 117/116/61 80/120/61 48/121/61
f 118/117/54 119/122/54 49/110/54 47/118/54
f 119/122/53 118/117/53 48/121/53 50/113/53
f 119/122/62 120/123/62 81/111/62 49/110/62
f 120/123/60 119/122/60 50/113/60 82/112/60
f 120/123/21 117/116/21 79/119/21 81/111/21
f 117/116/22 120/123/22 82/112/22 80/120/22
f 121/124/61 122/125/61 45/126/61 77/127/61
f 122/125/51 121/124/51 78/128/51 46/129/51
f 122/125/59 123/130/59 47/118/59 45/126/59
f 123/130/58 122/125/58 46/129/58 48/121/58
f 123/130/56 124/131/56 79/119/56 47/118/56
f 124/131/62 123/130/62 48/121/62 80/120/62
f 124/131/13 121/124/13 77/127/13 79/119/13
f 121/124/14 124/131/14 80/120/14 78/128/14
f 125/132/51 126/133/51 59/66/51 73/134/51
f 126/133/52 125/132/52 74/135/52 60/67/52
f 126/133/53 127/136/53 53/74/53 59/66/53
f 127/136/54 126/133/54 60/67/54 54/75/54
f 127/136/55 128/137/55 75/138/55 53/74/55
f 128/137/56 127/136/56 54/75/56 76/139/56
f 128/137/22 125/132/22 73/134/22 75/138/22
f 125/132/21 128/137/21 76/139/21 74/135/21
f 129/140/52 130/141/52 57/58/52 71/142/52
f 130/141/57 129/140/57 72/143/57 58/59/57
f 130/141/58 131/144/58 59/66/58 57/58/58
f 131/144/59 130/141/59 58/59/59 60/67/59
f 131/144/60 132/145/60 73/134/60 59/66/60
f 132/145/55 131/144/55 60/67/55 74/135/55
f 132/145/14 129/140/14 71/142/14 73/134/14
f 129/140/13 132/145/13 74/135/13 72/143/13
f 133/146/57 134/147/57 55/50/57 69/148/57
f 134/147/61 133/146/61 70/149/61 56/51/61
f 134/147/54 135/150/54 57/58/54 55/50/54
f 135/150/53 134/147/53 56/51/53 58/59/53
f 135/150/62 136/151/62 71/142/62 57/58/62
f 136/151/60 135/150/60 58/59/60 72/143/60
f 136/151/21 133/146/21 69/148/21 71/142/21
f 133/146/22 136/151/22 72/143/22 70/149/22
f 137/152/61 138/153/61 53/43/61 75/154/61
f 138/153/51 137/152/51 76/155/51 54/44/51
f 138/153/59 139/156/59 55/50/59 53/43/59
f 139/156/58 138/153/58 54/44/58 56/51/58
f 139/156/56 140/157/56 69/148/56 55/50/56
f 140/157/62 139/156/62 56/51/62 70/149/62
f 140/157/13 137/152/13 75/154/13 69/148/13
f 137/152/14 140/157/14 70/149/14 76/155/14
f 141/158/63 142/159/63 67/160/63 29/161/63
f 142/159/64 141/158/64 30/162/64 68/163/64
f 142/159/59 143/164/59 61/165/59 67/160/59
f 143/164/58 142/159/58 68/163/58 62/166/58
f 143/164/65 144/167/65 33/168/65 61/165/65
f 144/167/66 143/164/66 62/166/66 34/169/66
f 144/167/67 141/158/67 29/161/67 33/168/67
f 141/158/68 144/167/68 34/169/68 30/162/68
f 145/170/69 146/171/69 61/165/69 33/168/69
f 146/171/70 145/170/70 34/169/70 62/166/70
f 146/171/54 147/172/54 63/173/54 61/165/54
f 147/172/53 146/171/53 62/166/53 64/174/53
f 147/172/71 148/175/71 41/78/71 63/173/71
f 148/175/72 147/172/72 64/174/72 42/81/72
f 148/175/73 145/170/73 33/168/73 41/78/73
f 145/170/74 148/175/74 42/81/74 34/169/74
f 149/176/75 150/177/75 63/173/75 41/78/75
f 150/177/76 149/176/76 42/81/76 64/174/76
f 150/177/58 151/178/58 65/179/58 63/173/58
f 151/178/59 150/177/59 64/174/59 66/180/59
f 151/178/77 152/181/77 37/83/77 65/179/77
f 152/181/78 151/178/78 66/180/78 38/84/78
f 152/181/79 149/176/79 41/78/79 37/83/79
f 149/176/80 152/181/80 38/84/80 42/81/80
f 153/182/81 154/183/81 65/179/81 37/83/81
f 154/183/82 153/182/82 38/84/82 66/180/82
f 154/183/53 155/184/53 67/185/53 65/179/53
f 155/184/54 154/183/54 66/180/54 68/186/54
f 155/184/83 156/187/83 29/188/83 67/185/83
f 156/187/84 155/184/84 68/186/84 30/189/84
f 156/187/85 153/182/85 37/83/85 29/188/85
f 153/182/86 156/187/86 30/189/86 38/84/86
f 157/190/61 158/191/61 75/154/61 45/126/61
f 158/191/51 157/190/51 46/129/51 76/155/51
f 158/191/59 159/192/59 69/148/59 75/154/59
f 159/192/58 158/191/58 76/155/58 70/149/58
f 159/192/56 160/193/56 47/118/56 69/148/56
f 160/193/62 159/192/62 70/149/62 48/121/62
f 160/193/13 157/190/13 45/126/13 47/118/13
f 157/190/14 160/193/14 48/121/14 46/129/14
f 161/194/57 162/195/57 69/148/57 47/118/57
f 162/195/61 161/194/61 48/121/61 70/149/61
f 162/195/54 163/196/54 71/142/54 69/148/54
f 163/196/53 162/195/53 70/149/53 72/143/53
f 163/196/62 164/197/62 49/110/62 71/142/62
f 164/197/60 163/196/60 72/143/60 50/113/60
f 164/197/21 161/194/21 47/118/21 49/110/21
f 161/194/22 164/197/22 50/113/22 48/121/22
f 165/198/52 166/199/52 71/142/52 49/110/52
f 166/199/57 165/198/57 50/113/57 72/143/57
f 166/199/58 167/200/58 73/134/58 71/142/58
f 167/200/59 166/199/59 72/143/59 74/135/59
f 167/200/60 168/201/60 51/98/60 73/134/60
f 168/201/55 167/200/55 74/135/55 52/101/55
f 168/201/14 165/198/14 49/110/14 51/98/14
f 165/198/13 168/201/13 52/101/13 50/113/13
f 169/202/51 170/203/51 73/134/51 51/98/51
f 170/203/52 169/202/52 52/101/52 74/135/52
f 170/203/53 171/204/53 75/138/53 73/134/53
f 171/204/54 170/203/54 74/135/54 76/139/54
f 171/204/55 172/205/55 45/103/55 75/138/55
f 172/205/56 171/204/56 76/139/56 46/104/56
f 172/205/22 169/202/22 51/98/22 45/103/22
f 169/202/21 172/205/21 46/104/21 52/101/21
f 173/206/61 174/207/61 77/127/61 67/160/61
f 174/207/51 173/206/51 68/163/51 78/128/51
f 174/207/59 175/208/59 79/119/59 77/127/59
f 175/208/58 174/207/58 78/128/58 80/120/58
f 175/208/56 176/209/56 61/165/56 79/119/56
f 176/209/62 175/208/62 80/120/62 62/166/62
f 176/209/13 173/206/13 67/160/13 61/165/13
f 173/206/14 176/209/14 62/166/14 68/163/14
f 177/210/57 178/211/57 79/119/57 61/165/57
f 178/211/61 177/210/61 62/166/61 80/120/61
f 178/211/54 179/212/54 81/111/54 79/119/54
f 179/212/53 178/211/53 80/120/53 82/112/53
f 179/212/62 180/213/62 63/173/62 81/111/62
f 180/213/60 179/212/60 82/112/60 64/174/60
f 180/213/21 177/210/21 61/165/21 63/173/21
f 177/210/22 180/213/22 64/174/22 62/166/22
f 181/214/52 182/215/52 81/111/52 63/173/52
f 182/215/57 181/214/57 64/174/57 82/112/57
f 182/215/58 183/216/58 83/99/58 81/111/58
f 183/216/59 182/215/59 82/112/59 84/100/59
f 183/216/60 184/217/60 65/179/60 83/99/60
f 184/217/55 183/216/55 84/100/55 66/180/55
f 184/217/14 181/214/14 63/173/14 65/179/14
f 181/214/13 184/217/13 66/180/13 64/174/13
f 185/218/51 186/219/51 83/99/51 65/179/51
f 186/219/52 185/218/52 66/180/52 84/100/52
f 186/219/53 187/220/53 77/106/53 83/99/53
f 187/220/54 186/219/54 84/100/54 78/107/54
f 187/220/55 188/221/55 67/185/55 77/106/55
f 188/221/56 187/220/56 78/107/56 68/186/56
f 188/221/22 185/218/22 65/179/22 67/185/22
f 185/218/21 188/221/21 68/186/21 66/180/21
